Coordinates
version=1
nRows=17
nColumns=40
inDegrees=yes

Units are S.I. units (second, meters, Newtons, ...)
Angles are in degrees.

endheader
time	pelvis_tilt	pelvis_list	pelvis_rotation	pelvis_tx	pelvis_ty	pelvis_tz	hip_flexion_r	hip_adduction_r	hip_rotation_r	knee_angle_r	knee_angle_r_beta	ankle_angle_r	subtalar_angle_r	mtp_angle_r	hip_flexion_l	hip_adduction_l	hip_rotation_l	knee_angle_l	knee_angle_l_beta	ankle_angle_l	subtalar_angle_l	mtp_angle_l	lumbar_extension	lumbar_bending	lumbar_rotation	arm_flex_r	arm_add_r	arm_rot_r	elbow_flex_r	pro_sup_r	wrist_flex_r	wrist_dev_r	arm_flex_l	arm_add_l	arm_rot_l	elbow_flex_l	pro_sup_l	wrist_flex_l	wrist_dev_l
     16.19128571	     -0.50809154	     -4.40702191	     -1.60023665	      1.00483853	      0.93780702	      0.39103056	     30.06753904	     -7.76510920	     -5.24454589	     50.91147298	     50.91147298	     -0.02513031	    -11.06273632	     -0.98459152	      9.34847847	     -5.05444288	     -9.58049832	     20.50722019	     20.50722019	     14.66409472	     -5.51017382	     -2.97806894	    -10.27881618	      3.21855429	      1.33621703	     -3.41767336	    -14.99294511	     -5.46079615	     24.42797226	     46.96838327	      0.00000000	      0.00000000	     20.34831378	    -18.10564628	     -3.20206422	     62.95979555	     46.46876891	      0.00000000	      0.00000000
     16.20507143	     -0.64391900	     -4.38872596	     -1.88870425	      1.00385944	      0.93797034	      0.39143059	     29.68325074	     -7.67546090	     -5.64482252	     47.27759200	     47.27759200	      0.21142539	    -10.41980475	     -0.70262935	      8.84311478	     -5.05540654	    -10.04748218	     19.98731180	     19.98731180	     14.77025057	     -5.14120678	     -3.16607883	    -10.18601575	      3.11238882	      1.28309145	     -4.32740540	    -15.17525354	     -5.92744728	     24.54804380	     46.98650268	      0.00000000	      0.00000000	     20.57135661	    -18.15876635	     -3.93741814	     64.20249468	     46.55523315	      0.00000000	      0.00000000
     16.21885714	     -0.90002301	     -4.35818482	     -2.15509227	      1.00289122	      0.93780834	      0.39207769	     29.33658516	     -7.51124335	     -5.97243937	     43.47872296	     43.47872296	      0.36515127	     -9.49946172	     -0.35810222	      8.51188161	     -5.04075426	    -10.35851925	     19.54186914	     19.54186914	     14.93305811	     -4.89606593	     -3.31733258	     -9.91218803	      2.90409578	      1.15725157	     -5.13952053	    -15.32324307	     -6.19735369	     24.56963862	     46.99600628	      0.00000000	      0.00000000	     20.81333365	    -18.20416477	     -4.41129576	     65.00028064	     46.61006700	      0.00000000	      0.00000000
     16.23264286	     -0.93718536	     -4.23005273	     -2.44727259	      1.00213630	      0.93793222	      0.39281203	     28.60524894	     -7.46676444	     -6.41746174	     39.47079180	     39.47079180	      0.41020491	     -7.90870978	     -0.50945385	      7.81331239	     -4.93695441	    -10.94860936	     18.88749666	     18.88749666	     14.98572679	     -4.29350951	     -3.73660760	     -9.99328764	      2.60511145	      1.18817829	     -6.12447802	    -15.39053881	     -6.98362809	     25.32880394	     47.00354176	      0.00000000	      0.00000000	     20.81237347	    -17.93828599	     -5.77174107	     66.72515451	     46.75301131	      0.00000000	      0.00000000
     16.24642857	     -1.14151722	     -4.22846256	     -2.66090528	      1.00123288	      0.93769139	      0.39374817	     27.94128730	     -7.16494033	     -6.82642892	     35.35027692	     35.35027692	      0.39728908	     -6.35606253	     -0.17692852	      7.48126162	     -4.96615659	    -11.19792264	     18.52983189	     18.52983189	     15.10609832	     -4.15329403	     -3.92159552	     -9.82288247	      2.47697145	      1.08433660	     -6.75183696	    -15.49201154	     -7.28425652	     25.51071135	     47.00760827	      0.00000000	      0.00000000	     20.92006678	    -17.91802799	     -6.28015105	     67.30161128	     46.80644436	      0.00000000	      0.00000000
     16.26021429	     -1.26457247	     -4.12031108	     -2.90017805	      1.00054661	      0.93744707	      0.39478631	     27.08051820	     -6.99427511	     -7.45412106	     31.16372501	     31.16372501	      0.07415534	     -4.18699545	     -0.85274145	      6.93662452	     -4.87791609	    -11.59637781	     17.95209681	     17.95209681	     15.00052022	     -3.86810044	     -4.69984198	     -9.79603861	      2.24817793	      0.92913277	     -7.62923998	    -15.39728363	     -8.70209468	     26.95953505	     47.00470932	      0.00000000	      0.00000000	     20.69402001	    -17.45808662	     -8.27127896	     68.62004186	     47.00639120	      0.00000000	      0.00000000
     16.27400000	     -1.37785447	     -4.06725589	     -3.09148927	      0.99993637	      0.93715943	      0.39603555	     26.17563631	     -6.66105580	     -8.03602110	     27.14508187	     27.14508187	      0.00474708	     -2.00038984	     -0.24377263	      6.46167691	     -4.85956051	    -11.85125749	     17.54951553	     17.54951553	     15.15702223	     -3.68107055	     -4.86741657	     -9.69985200	      2.07638797	      0.98190163	     -8.05160172	    -15.38597283	     -8.85467947	     26.94615043	     47.00478482	      0.00000000	      0.00000000	     20.84562262	    -17.36122749	     -8.45914963	     68.86830936	     47.03117469	      0.00000000	      0.00000000
     16.28778571	     -1.44999062	     -3.93799555	     -3.29617144	      0.99945608	      0.93679798	      0.39743265	     25.27496163	     -6.43018989	     -8.88681461	     23.48803458	     23.48803458	     -0.02620701	      0.73867714	      0.48842195	      5.88809362	     -4.76210142	    -12.21525380	     17.05416790	     17.05416790	     15.25249260	     -3.35044948	     -5.19911123	     -9.66887747	      1.79880017	      1.03680877	     -8.44286482	    -15.26836445	     -9.10587421	     27.20300747	     46.99571538	      0.00000000	      0.00000000	     20.94038476	    -17.12903853	     -8.94554864	     69.07136233	     47.07891546	      0.00000000	      0.00000000
     16.30157143	     -1.62347740	     -3.87877087	     -3.45752171	      0.99901378	      0.93621906	      0.39903806	     24.50121899	     -5.99523287	     -9.52831855	     20.18167028	     20.18167028	     -0.17835065	      2.77895724	      1.40761393	      5.49313900	     -4.76121362	    -12.42031377	     16.68911256	     16.68911256	     15.39899199	     -3.17679914	     -5.46779316	     -9.49839976	      1.64827186	      1.05983926	     -8.70245132	    -15.16977326	     -9.23416617	     27.36449911	     46.98876185	      0.00000000	      0.00000000	     20.85104300	    -16.94385402	     -9.23435525	     69.09584665	     47.10449258	      0.00000000	      0.00000000
     16.31535714	     -1.56660405	     -3.73490350	     -3.63800883	      0.99885625	      0.93583542	      0.40071258	     23.64171361	     -5.73905853	    -10.51230980	     17.60544619	     17.60544619	      0.03639765	      5.37459499	      2.63421240	      4.75651783	     -4.65212325	    -12.79434591	     16.18548493	     16.18548493	     15.46803178	     -2.83668962	     -5.98761456	     -9.58718622	      1.41472602	      1.10481362	     -8.86420946	    -15.05773012	     -9.44633284	     27.77713942	     46.97154396	      0.00000000	      0.00000000	     20.78640730	    -16.65912809	     -9.86584302	     68.93836688	     47.15383303	      0.00000000	      0.00000000
     16.32914286	     -1.78101150	     -3.59460849	     -3.80777247	      0.99862500	      0.93502062	      0.40263175	     23.21780095	     -5.35679848	    -11.04575997	     15.65341473	     15.65341473	      0.07287108	      6.71518308	      3.48969166	      4.38574707	     -4.57443611	    -13.00738441	     15.80369303	     15.80369303	     15.60244885	     -2.67873898	     -6.28720919	     -9.36816365	      1.21334868	      1.12494669	     -8.90138165	    -14.87385428	     -9.50837805	     27.98722384	     46.95969227	      0.00000000	      0.00000000	     20.55351409	    -16.47020584	    -10.12467224	     68.69672504	     47.16945518	      0.00000000	      0.00000000
     16.34292857	     -1.79586814	     -3.48610909	     -4.00699682	      0.99870405	      0.93450908	      0.40468481	     22.65018556	     -4.98512069	    -11.67155302	     14.32369497	     14.32369497	      0.30509312	      7.98717924	      4.24940133	      3.71303107	     -4.51240743	    -13.30725620	     15.31556419	     15.31556419	     15.72693446	     -2.44965440	     -6.64042788	     -9.33042632	      1.05722614	      1.14068936	     -8.76604603	    -14.70141974	     -9.55583893	     28.25419834	     46.94558087	      0.00000000	      0.00000000	     20.23198049	    -16.26278822	    -10.44734016	     68.20968675	     47.18538393	      0.00000000	      0.00000000
     16.35671429	     -1.88534936	     -3.37810951	     -4.17923349	      0.99886253	      0.93363805	      0.40690356	     22.48921314	     -4.64374736	    -11.86854333	     14.03973237	     14.03973237	      0.70375817	      8.26109486	      4.32093694	      3.26704935	     -4.48350135	    -13.42336980	     15.12439713	     15.12439713	     16.02645007	     -2.43646807	     -6.82854032	     -9.14690528	      0.89486213	      1.28600694	     -8.53105573	    -14.46219893	     -9.53428518	     28.41088480	     46.93683529	      0.00000000	      0.00000000	     19.79549202	    -16.03755662	    -10.49087782	     67.88604324	     47.18081145	      0.00000000	      0.00000000
     16.37050000	     -1.76144891	     -3.31272148	     -4.33365050	      0.99944388	      0.93347721	      0.40909523	     21.87954013	     -4.37672614	    -12.68723174	     13.83538907	     13.83538907	      1.50527735	      9.35624862	      5.90827986	      2.11603483	     -4.39472590	    -13.78994963	     14.00133377	     14.00133377	     15.46952304	     -2.14170140	     -8.30265389	     -9.23751974	      0.85702446	      1.23901724	     -8.34078239	    -14.42866068	     -9.48030987	     28.99170496	     46.87035169	      0.00000000	      0.00000000	     19.81509061	    -15.31484558	    -12.03874930	     65.59909706	     47.26464762	      0.00000000	      0.00000000
     16.38428571	     -1.82270313	     -3.29204600	     -4.43976042	      1.00010527	      0.93270578	      0.41145222	     21.57696015	     -4.01555353	    -12.79503545	     14.11566016	     14.11566016	      1.97118882	      9.11762787	      5.69596969	      1.58017647	     -4.45060840	    -13.87634250	     13.74610700	     13.74610700	     15.77584879	     -2.15378810	     -8.37316589	     -9.06881231	      0.86694934	      1.33520379	     -7.99986262	    -14.18598109	     -9.44065183	     29.16990590	     46.85995430	      0.00000000	      0.00000000	     19.15311487	    -15.08406989	    -11.96169258	     65.15289240	     47.24713239	      0.00000000	      0.00000000
     16.39807143	     -1.68058724	     -3.13379951	     -4.54582581	      1.00122210	      0.93222818	      0.41387498	     21.20040584	     -3.83881495	    -12.47982825	     14.90581088	     14.90581088	      2.52186145	      8.27656977	      5.06789529	      0.49756129	     -4.26991150	    -14.08014549	     12.89658496	     12.89658496	     15.91524796	     -1.75744203	     -8.32587392	     -9.05512746	      0.74859419	      0.96864719	     -7.33214166	    -14.05865346	     -9.36198696	     29.55662699	     46.83510194	      0.00000000	      0.00000000	     18.43326009	    -15.24222771	    -12.08862740	     63.63976321	     47.22830346	      0.00000000	      0.00000000
     16.41185714	     -1.58205260	     -3.03094584	     -4.59299746	      1.00249263	      0.93158660	      0.41633649	     20.81967451	     -3.63192059	    -12.04694439	     15.75370450	     15.75370450	      3.00688266	      7.18444675	      4.12987911	     -0.38764027	     -4.19048101	    -14.17931805	     12.33937006	     12.33937006	     16.14442455	     -1.58212810	     -8.18125628	     -8.99137332	      0.72466210	      0.78448533	     -6.75768614	    -13.88713208	     -9.17838206	     29.86744184	     46.80358048	      0.00000000	      0.00000000	     17.76762458	    -15.10316131	    -12.23511296	     61.84625485	     47.20648467	      0.00000000	      0.00000000
